<?xml version="1.0" standalone="no"?>
<!DOCTYPE svg PUBLIC "-//W3C//DTD SVG 20010904//EN"
 "http://www.w3.org/TR/2001/REC-SVG-20010904/DTD/svg10.dtd">
<svg version="1.0" xmlns="http://www.w3.org/2000/svg"
 width="1112.000000pt" height="1112.000000pt" viewBox="0 0 1112.000000 1112.000000"
 preserveAspectRatio="xMidYMid meet">
<metadata>
Created by potrace 1.14, written by Peter Selinger 2001-2017
</metadata>
<g transform="translate(0.000000,1112.000000) scale(0.100000,-0.100000)"
fill="#000000" stroke="none">
<path d="M4065 10141 c-30 -13 -51 -41 -68 -91 -9 -25 -23 -62 -31 -82 -9 -21
-17 -41 -17 -45 -1 -5 -6 -19 -11 -33 -5 -14 -20 -56 -34 -95 -72 -193 -109
-288 -124 -317 -6 -10 -10 -23 -10 -28 0 -6 -9 -30 -20 -52 -11 -23 -20 -48
-20 -55 0 -29 -69 -91 -120 -108 -3 -1 -12 -4 -20 -8 -28 -11 -202 -69 -213
-71 -7 -2 -86 -27 -177 -56 -223 -73 -256 -71 -380 28 -15 12 -32 22 -37 22
-5 0 -27 13 -49 30 -21 16 -43 30 -47 30 -4 0 -13 5 -20 11 -23 20 -239 159
-247 159 -5 0 -10 3 -12 8 -4 10 -97 72 -107 72 -5 0 -11 3 -13 8 -7 16 -89
62 -111 62 -14 0 -64 -29 -117 -67 -51 -38 -99 -72 -108 -78 -28 -18 -43 -30
-60 -47 -9 -10 -22 -18 -28 -18 -7 0 -14 -3 -16 -8 -1 -4 -28 -25 -58 -46 -30
-22 -78 -57 -106 -78 -28 -21 -56 -38 -61 -38 -6 0 -13 -7 -17 -15 -3 -8 -12
-15 -21 -15 -8 0 -15 -4 -15 -8 0 -5 -23 -23 -51 -42 -28 -18 -59 -46 -69 -62
-19 -32 -21 -21 46 -263 9 -33 18 -67 19 -75 2 -8 4 -15 5 -15 1 0 3 -7 5 -15
1 -8 10 -40 19 -70 9 -30 17 -57 17 -60 1 -3 3 -9 4 -15 4 -12 34 -133 40
-158 2 -10 7 -28 11 -40 4 -12 8 -29 10 -37 1 -8 8 -42 16 -75 9 -33 13 -76
10 -95 -4 -29 -40 -99 -62 -120 -3 -3 -21 -27 -39 -55 -19 -27 -38 -52 -41
-55 -3 -3 -16 -21 -27 -40 -12 -19 -30 -44 -40 -56 -10 -11 -22 -27 -28 -36
-56 -91 -175 -240 -202 -253 -30 -15 -64 -18 -333 -30 -47 -2 -85 -4 -85 -5 0
-1 -112 -6 -312 -15 -79 -3 -152 -8 -164 -10 -34 -7 -66 -43 -74 -82 -3 -19
-11 -47 -17 -62 -6 -14 -12 -31 -14 -38 -1 -6 -44 -139 -95 -295 -51 -156 -94
-285 -94 -288 0 -3 -3 -10 -7 -16 -4 -6 -10 -29 -14 -52 -8 -50 1 -63 86 -131
36 -28 77 -62 93 -76 15 -14 31 -25 35 -25 4 0 29 -20 57 -45 27 -25 52 -45
55 -45 3 0 19 -13 36 -28 17 -15 47 -39 65 -54 19 -14 44 -35 56 -45 12 -10
31 -25 41 -33 20 -15 100 -83 138 -117 36 -32 56 -71 60 -120 6 -76 5 -605 -1
-638 -8 -41 -38 -85 -77 -115 -18 -14 -39 -32 -48 -40 -8 -8 -36 -31 -60 -50
-25 -19 -47 -37 -50 -40 -3 -3 -39 -32 -80 -65 -41 -33 -80 -64 -86 -70 -6 -5
-71 -57 -145 -115 -163 -129 -179 -145 -179 -176 0 -13 31 -118 69 -232 71
-215 154 -471 157 -484 1 -5 3 -11 4 -15 1 -5 3 -12 4 -18 3 -13 15 -43 28
-72 16 -33 51 -42 188 -48 69 -3 168 -8 220 -10 141 -7 447 -25 485 -30 57 -6
86 -31 174 -150 29 -38 58 -77 65 -86 7 -9 33 -44 57 -79 24 -35 52 -73 61
-84 27 -33 106 -148 123 -179 16 -27 21 -94 11 -132 -3 -11 -24 -90 -46 -175
-23 -85 -43 -162 -45 -170 -2 -8 -4 -15 -5 -15 -1 0 -3 -7 -5 -15 -1 -8 -17
-69 -35 -134 -17 -66 -33 -126 -35 -135 -2 -9 -8 -31 -14 -48 -5 -18 -7 -33
-4 -33 3 0 1 -6 -4 -12 -11 -14 -11 -60 0 -94 4 -11 37 -42 75 -69 37 -27 69
-53 70 -57 2 -5 10 -8 17 -8 7 0 15 -4 17 -8 2 -4 77 -61 168 -127 91 -66 166
-123 168 -127 2 -4 7 -8 12 -8 4 0 47 -29 95 -65 48 -36 92 -65 96 -65 12 0
93 52 97 63 2 4 8 7 13 7 5 0 63 36 130 80 66 44 124 80 129 80 6 0 10 4 10 8
0 5 10 14 23 21 31 17 52 29 137 85 263 172 252 168 379 130 31 -9 70 -20 86
-25 17 -5 33 -9 38 -9 4 0 21 -7 37 -15 16 -8 31 -15 32 -14 3 2 102 -28 133
-40 11 -5 58 -21 105 -36 47 -16 102 -36 122 -46 35 -18 88 -75 88 -95 0 -5
15 -46 34 -91 19 -45 36 -90 38 -100 2 -10 5 -20 8 -23 3 -3 21 -45 39 -95 18
-49 37 -99 42 -110 16 -37 61 -160 66 -183 3 -12 9 -25 14 -28 5 -3 9 -14 9
-24 0 -38 51 -128 78 -139 17 -7 101 -11 234 -9 l207 2 1 280 c1 155 2 287 1
294 -4 71 -2 242 3 251 4 6 4 11 -1 11 -4 0 -8 23 -8 50 0 28 3 50 7 50 4 0 4
8 1 17 -4 10 -6 33 -5 53 3 42 3 31 1 174 -1 63 2 119 5 125 4 6 4 11 -1 11
-4 0 -8 23 -8 50 0 28 3 50 7 50 4 0 4 8 1 17 -4 10 -6 33 -5 53 1 19 2 40 2
45 1 6 0 57 0 115 -1 464 2 560 16 568 12 7 15 48 15 230 0 165 3 222 12 223
20 2 130 1 442 -6 165 -3 351 -7 414 -8 l113 -2 22 -40 c11 -22 23 -42 26 -45
3 -3 14 -21 25 -40 10 -19 28 -51 40 -71 11 -21 37 -67 58 -103 20 -37 37 -71
37 -76 0 -6 5 -10 10 -10 6 0 10 -4 10 -9 0 -5 29 -59 65 -121 36 -62 65 -115
65 -117 0 -3 9 -17 20 -33 18 -26 25 -28 92 -28 40 -1 88 -2 106 -5 18 -2 35
0 38 5 3 5 10 6 15 2 6 -3 94 -8 197 -9 472 -9 441 -7 449 -29 4 -12 7 -23 8
-26 10 -48 65 -156 120 -235 47 -66 153 -169 206 -200 19 -10 55 -31 82 -46
142 -81 384 -115 554 -78 32 7 60 13 63 14 43 9 161 61 225 98 82 48 189 153
243 237 19 30 44 68 54 83 11 15 20 37 21 47 1 11 5 20 10 20 4 0 5 5 2 10 -3
6 -2 10 3 10 5 0 9 6 9 13 1 6 8 39 18 72 23 82 28 261 9 345 -17 75 -22 95
-24 95 -1 0 -3 7 -5 16 -5 26 -78 168 -97 189 -10 10 -18 23 -18 27 -1 27
-215 217 -232 207 -4 -3 -8 -2 -8 3 0 17 -157 88 -220 99 -14 3 -33 7 -43 10
-51 15 -241 22 -302 10 -60 -11 -77 -15 -95 -21 -10 -3 -27 -8 -38 -10 -38 -7
-175 -76 -230 -117 -71 -51 -159 -140 -203 -204 -18 -27 -33 -51 -32 -54 1 -3
-4 -12 -11 -20 -16 -19 -66 -137 -66 -156 0 -18 10 -17 -205 -14 -413 4 -438
6 -453 26 -15 20 -156 269 -224 394 -22 41 -46 82 -52 90 -7 8 -21 33 -31 55
-11 22 -23 42 -26 45 -4 3 -9 14 -13 25 -3 11 -14 30 -24 42 -19 25 53 21
-817 39 -170 4 -332 7 -360 8 l-50 1 0 635 0 635 135 0 c74 0 143 -3 152 -8 9
-4 20 -2 23 3 4 6 11 8 16 4 10 -6 328 -14 711 -17 98 -1 178 -6 178 -10 0 -4
9 -3 20 3 11 6 20 7 20 2 0 -5 20 -6 45 -2 25 4 45 4 45 1 0 -3 73 -6 163 -7
277 -2 769 -14 778 -20 5 -3 46 -51 91 -107 45 -56 85 -104 88 -107 5 -4 67
-80 133 -163 12 -15 27 -33 32 -40 6 -7 42 -50 80 -97 39 -47 73 -86 78 -88 4
-2 7 -8 7 -13 0 -5 14 -23 30 -39 17 -16 30 -32 30 -35 0 -3 11 -18 24 -33 66
-76 136 -162 136 -166 0 -5 44 -57 88 -103 12 -13 22 -28 22 -33 0 -14 -66
-12 1040 -35 96 -2 307 -6 469 -10 162 -3 298 -8 302 -10 4 -3 10 -16 13 -29
3 -14 11 -38 18 -53 6 -15 12 -30 13 -33 7 -22 35 -73 62 -112 18 -26 33 -50
33 -53 0 -9 124 -130 165 -162 52 -40 167 -103 188 -103 9 0 17 -4 17 -8 0 -5
6 -9 13 -9 6 -1 50 -11 97 -23 82 -21 252 -29 320 -15 14 2 39 7 55 11 231 48
441 204 558 416 14 25 23 49 20 52 -4 3 -1 6 5 6 7 0 12 8 12 18 0 10 4 22 9
27 6 6 12 24 15 40 3 17 11 46 16 65 15 46 21 222 10 285 -18 104 -21 120 -31
130 -5 5 -9 16 -9 24 0 20 -82 181 -92 181 -4 0 -8 5 -8 10 0 16 -97 121 -161
175 -25 22 -126 83 -169 103 -163 76 -357 96 -549 57 -56 -11 -209 -70 -221
-85 -3 -4 -12 -9 -20 -12 -27 -10 -143 -102 -178 -140 -90 -100 -159 -216
-183 -307 -14 -56 -18 -57 -139 -47 -14 1 -35 -2 -46 -6 -12 -4 -25 -4 -28 -1
-6 6 -220 12 -568 16 -98 1 -178 6 -178 10 0 5 -6 5 -12 1 -16 -10 -50 -10
-65 -1 -6 4 -14 3 -18 -3 -4 -6 -11 -8 -16 -4 -6 3 -133 8 -282 10 -244 4
-273 6 -285 22 -7 9 -18 24 -25 32 -39 49 -103 127 -112 136 -11 13 -21 26
-80 99 -22 27 -46 56 -53 63 -7 8 -25 30 -40 50 -15 21 -29 39 -33 42 -3 3
-88 106 -189 230 -101 124 -189 230 -194 237 -6 6 -21 24 -33 40 -12 15 -35
44 -51 63 -33 39 11 34 -359 41 -101 2 -183 5 -183 6 0 7 56 56 88 78 20 14
33 25 28 25 -5 0 4 10 20 22 16 12 32 26 35 31 8 11 79 11 509 2 173 -4 327
-6 342 -6 22 1 28 -4 33 -29 19 -88 126 -256 219 -344 68 -64 208 -155 248
-160 3 -1 10 -4 14 -8 4 -5 16 -8 26 -8 10 0 26 -4 36 -10 42 -23 159 -39 271
-35 64 1 127 5 141 9 14 3 39 9 55 13 39 9 36 8 68 21 16 7 31 12 33 12 14 0
103 46 131 68 18 13 33 20 33 16 0 -5 5 -1 11 9 5 9 15 17 22 17 13 0 172 162
190 195 52 94 85 164 80 169 -4 3 0 6 7 6 7 0 11 3 7 6 -3 4 0 21 7 39 20 48
29 117 30 230 0 92 -9 179 -21 197 -2 5 -6 20 -9 34 -7 36 -61 154 -81 176 -9
10 -13 18 -9 18 14 0 -113 148 -161 187 -51 43 -124 91 -134 89 -4 -1 -15 6
-25 15 -27 22 -147 67 -229 85 -16 3 -80 7 -142 9 -114 3 -221 -11 -286 -38
-19 -9 -38 -13 -41 -9 -3 3 -6 1 -6 -4 0 -5 -10 -10 -22 -11 -11 -1 -25 -8
-29 -15 -5 -7 -9 -10 -9 -6 0 9 -97 -48 -118 -69 -7 -7 -16 -13 -20 -13 -23
-1 -212 -209 -212 -234 0 -5 -6 -17 -13 -25 -18 -22 -54 -108 -67 -159 l-11
-43 -372 7 c-657 11 -629 12 -652 -11 -12 -11 -47 -42 -80 -70 -32 -27 -69
-59 -81 -70 -12 -11 -31 -27 -41 -35 -19 -17 -86 -75 -188 -165 -33 -29 -84
-73 -113 -99 l-52 -46 -263 5 c-677 11 -1142 20 -1159 24 -4 0 -7 291 -7 644
l0 644 162 -2 c89 0 168 -4 175 -9 6 -4 12 -3 12 2 0 10 36 9 46 0 3 -4 16 -3
29 2 13 5 26 6 29 3 3 -3 106 -8 228 -10 474 -7 575 -10 585 -16 7 -4 14 -4
16 0 4 6 72 9 72 3 0 0 142 -3 316 -6 l316 -5 69 77 c38 42 85 93 104 114 19
21 73 79 120 130 96 105 102 112 209 229 42 46 94 103 116 126 22 22 55 59 74
80 l35 40 88 0 c48 0 88 -3 88 -7 0 -4 13 -3 29 2 16 4 31 6 34 4 2 -2 134 -7
293 -9 490 -8 715 -15 725 -21 5 -3 9 -12 9 -20 0 -29 72 -166 122 -231 47
-61 69 -85 133 -141 37 -33 115 -81 173 -107 31 -15 65 -30 74 -35 9 -5 30
-12 45 -15 15 -2 39 -7 53 -10 89 -20 255 -25 335 -11 353 62 632 338 682 676
9 57 9 225 0 265 -4 17 -9 44 -13 60 -3 17 -9 39 -14 50 -4 11 -15 38 -24 60
-10 22 -21 47 -27 55 -5 8 -17 30 -27 49 -9 19 -26 46 -37 59 -128 157 -246
242 -410 298 -79 26 -95 30 -165 38 -19 3 -37 5 -40 6 -13 4 -151 0 -181 -5
-70 -11 -179 -39 -179 -45 0 -4 -6 -7 -12 -7 -14 0 -109 -43 -118 -52 -3 -3
-17 -13 -31 -21 -147 -83 -287 -261 -345 -440 l-21 -65 -194 2 c-406 3 -748
11 -757 17 -6 3 -13 2 -17 -4 -4 -6 -11 -8 -16 -4 -5 3 -103 7 -217 9 l-207 3
-55 -58 c-30 -32 -73 -78 -94 -101 -21 -24 -81 -89 -132 -144 -51 -55 -102
-111 -114 -125 -25 -28 -156 -171 -287 -313 l-52 -56 -228 5 c-570 11 -1432
29 -1555 33 l-28 1 1 163 c0 313 0 317 -13 315 -10 -2 -13 140 -13 684 0 379
-4 688 -8 688 -5 0 -5 5 -2 10 8 13 10 229 2 236 -3 3 -3 12 0 19 8 22 9 215
1 215 -4 0 -5 6 -2 14 8 22 10 226 2 226 -4 0 -3 11 2 25 6 16 6 26 -1 31 -6
3 -6 11 -1 17 10 14 10 27 -1 44 -9 14 -399 17 -432 4z m40 -2009 c0 -236 7
-217 -75 -227 -25 -2 -56 -7 -70 -10 -14 -3 -38 -8 -55 -11 -16 -2 -48 -10
-70 -16 -22 -6 -43 -11 -48 -10 -4 1 -23 -4 -42 -12 -19 -8 -35 -13 -35 -11 0
4 -92 -29 -175 -61 -22 -9 -49 -20 -60 -24 -46 -18 -180 -86 -193 -97 -7 -7
-17 -13 -22 -13 -8 0 -129 -72 -155 -92 -5 -5 -41 -31 -80 -59 -38 -28 -71
-55 -73 -60 -2 -5 -8 -9 -12 -9 -15 0 -230 -204 -280 -266 -161 -198 -244
-321 -329 -490 -49 -97 -111 -244 -104 -244 3 0 1 -6 -5 -12 -11 -14 -68 -189
-76 -232 -3 -14 -7 -34 -10 -44 -8 -27 -34 -155 -42 -207 -43 -290 -34 -613
26 -885 6 -25 11 -55 13 -67 2 -12 6 -26 10 -29 4 -4 7 -15 7 -24 0 -9 16 -63
36 -121 19 -57 36 -108 38 -114 1 -5 10 -27 19 -49 9 -21 17 -40 17 -43 0 -11
103 -213 111 -219 5 -3 7 -9 4 -14 -3 -5 -1 -11 4 -15 6 -3 25 -32 43 -65 18
-33 36 -60 40 -60 5 0 8 -5 8 -11 0 -8 109 -159 164 -227 39 -47 232 -237 286
-280 36 -29 72 -58 80 -66 23 -20 148 -106 155 -106 3 0 11 -5 18 -10 24 -20
87 -59 87 -54 0 3 12 -3 28 -13 26 -19 109 -60 205 -102 73 -33 251 -90 347
-111 136 -30 157 -34 230 -42 14 -2 27 -6 30 -10 4 -5 5 -373 1 -416 -1 -9
-11 -11 -33 -7 -18 3 -44 7 -58 9 -14 2 -36 7 -50 10 -14 3 -36 8 -50 11 -14
2 -59 14 -100 25 -41 12 -93 26 -115 31 -21 6 -53 16 -70 23 -16 8 -69 28
-118 46 -48 17 -123 49 -167 71 -45 21 -82 39 -84 39 -6 0 -221 123 -226 129
-3 3 -17 12 -31 20 -25 12 -231 162 -255 185 -6 6 -31 27 -55 46 -54 44 -230
219 -286 285 -74 87 -84 98 -139 171 -30 39 -54 75 -54 81 0 6 -3 13 -7 15
-12 5 -65 78 -57 78 4 0 -2 10 -13 23 -11 12 -23 29 -27 37 -3 8 -19 38 -35
65 -40 67 -113 215 -146 295 -45 108 -48 115 -50 126 -5 21 -46 139 -56 160
-6 11 -9 24 -8 30 1 5 0 12 -1 17 -1 4 -3 10 -5 15 -1 4 -4 14 -8 22 -3 8 -8
29 -11 45 -13 64 -16 81 -22 105 -16 70 -34 179 -40 245 -2 28 -7 73 -10 100
-8 68 -8 398 0 460 3 28 8 73 10 100 6 79 61 369 74 390 3 5 7 16 7 25 2 25
66 224 76 235 5 5 9 15 9 23 0 8 6 28 14 45 8 18 24 55 36 82 35 81 125 256
170 331 57 94 191 284 200 284 4 0 11 9 16 19 13 29 106 133 210 236 108 107
133 130 244 217 47 37 93 74 103 82 9 9 17 13 17 9 0 -5 4 -3 8 2 4 6 36 30
72 53 36 23 70 46 77 52 7 5 15 10 18 10 3 0 23 11 44 24 143 91 511 247 639
271 9 2 17 4 17 5 0 2 4 3 115 29 133 32 173 39 195 38 19 -2 20 -10 20 -215z
m0 -2580 l0 -1954 -51 7 c-133 16 -371 91 -499 157 -33 17 -73 38 -90 46 -40
20 -215 136 -240 159 -11 10 -36 31 -55 47 -155 126 -347 357 -439 526 -102
189 -191 421 -217 570 -3 14 -7 32 -9 40 -6 19 -15 76 -20 127 -2 21 -7 56
-10 78 -7 46 -8 308 -1 375 6 65 16 143 21 171 3 13 8 39 11 58 8 46 10 57 30
126 9 33 17 67 19 75 1 8 8 29 15 45 6 17 13 35 14 40 1 6 10 27 19 49 9 21
17 40 17 43 0 2 14 33 30 68 17 35 30 68 30 74 0 5 3 11 8 13 4 2 20 28 36 58
35 67 113 184 175 265 66 85 317 335 338 335 2 0 24 16 47 35 24 19 46 35 49
35 3 0 26 14 50 30 154 104 426 212 617 245 19 3 36 7 37 9 2 2 18 3 36 2 l32
-1 0 -1953z"/>
</g>
</svg>
