<svg xmlns="http://www.w3.org/2000/svg" viewBox="0 0 239.77 244.79"><defs><style>.cls-1{fill:none;}.cls-1,.cls-2{stroke:#000;stroke-miterlimit:10;stroke-width:3px;}.cls-2{fill:#3b7abe;}</style></defs><title>Asset 1</title><g id="Layer_2" data-name="Layer 2"><g id="Layer_1-2" data-name="Layer 1"><path d="M57.92,228.65c-6.34-4.6-12.56-9.06-18.69-13.65a3,3,0,0,1-.69-2.61c1.76-6.94,3.71-13.83,5.46-20.77a4.51,4.51,0,0,0-.53-3.28c-3.19-4.63-6.51-9.17-9.91-13.65a4.24,4.24,0,0,0-2.74-1.49c-7.15-.49-14.32-.85-21.49-1.16A2.52,2.52,0,0,1,6.61,170c-2-6.61-4.21-13.18-6.41-19.73a2.25,2.25,0,0,1,.89-2.9c5.63-4.45,11.23-8.93,16.73-13.53a4.87,4.87,0,0,0,1.56-3.2q.24-8.19,0-16.39A4.82,4.82,0,0,0,17.82,111c-5.5-4.61-11.1-9.09-16.73-13.54A2.24,2.24,0,0,1,.2,94.58q3.35-9.94,6.5-20a2.22,2.22,0,0,1,2.39-1.84c7.16-.33,14.32-.8,21.49-1.09a3.84,3.84,0,0,0,3.33-1.94c3.1-4.39,6.38-8.66,9.42-13.1A4.8,4.8,0,0,0,44,53.17c-1.7-6.86-3.55-13.7-5.49-20.51-.42-1.49-.24-2.32,1.06-3.24q8.58-6.08,17-12.35A2,2,0,0,1,59.33,17c6,4,12.1,8,18.23,11.85a4.5,4.5,0,0,0,3.29.47q8.06-2.4,16-5.21a4.57,4.57,0,0,0,2.38-2.36q3.88-9.75,7.44-19.63C107.28.45,108.13,0,109.86,0q10,.15,20.06,0c1.72,0,2.57.45,3.18,2.14q3.56,9.89,7.46,19.62a4.85,4.85,0,0,0,2.6,2.44Q151,27,158.93,29.33a4.48,4.48,0,0,0,3.28-.46c6.07-3.82,12.06-7.74,18-11.73a2.3,2.3,0,0,1,3.17.07q8.34,6.2,16.82,12.21c1.3.92,1.47,1.75,1.05,3.25q-2.91,10.2-5.5,20.5a4.51,4.51,0,0,0,.53,3.28c3.18,4.63,6.5,9.18,9.91,13.65A4.24,4.24,0,0,0,209,71.57c7.16.49,14.32.87,21.49,1.18a2.54,2.54,0,0,1,2.72,2.09c2,6.61,4.21,13.18,6.41,19.73a2.25,2.25,0,0,1-.89,2.9c-5.62,4.45-11.23,8.93-16.73,13.54a4.87,4.87,0,0,0-1.56,3.19q-.24,8.19,0,16.39a4.87,4.87,0,0,0,1.56,3.2c5.5,4.6,11.11,9.08,16.73,13.53a2.24,2.24,0,0,1,.89,2.9q-3.34,9.94-6.5,20a2.22,2.22,0,0,1-2.39,1.84c-7.17.33-14.33.68-21.49,1.19a4.84,4.84,0,0,0-3.11,1.69q-5,6.48-9.64,13.24a4.81,4.81,0,0,0-.66,3.48c1.7,6.87,3.55,13.7,5.49,20.51.42,1.5.25,2.33-1.05,3.25q-8.59,6.06-17,12.35a2,2,0,0,1-2.76.05c-6-4-12.09-8-18.23-11.86a4.47,4.47,0,0,0-3.28-.45q-8,2.35-15.77,5.12a4.89,4.89,0,0,0-2.6,2.44q-3.92,9.74-7.46,19.62a2.78,2.78,0,0,1-3.18,2.14q-10-.15-20.06,0a2.79,2.79,0,0,1-3.19-2.14q-3.56-9.87-7.46-19.62a4.87,4.87,0,0,0-2.59-2.44q-7.82-2.78-15.78-5.13a4.5,4.5,0,0,0-3.27.46C71,220.05,64.57,224.31,57.92,228.65ZM195.25,122.54a75.36,75.36,0,1,0-75.38,75.22A75.44,75.44,0,0,0,195.25,122.54Z"/><path class="cls-1" d="M182,127.87a62.38,62.38,0,1,0-56.74,56.54A62.44,62.44,0,0,0,182,127.87Z"/><path class="cls-2" d="M91.7,115.57a10.48,10.48,0,1,0-9.53,9.5A10.49,10.49,0,0,0,91.7,115.57Z"/><polyline class="cls-1" points="81.26 125.11 81.26 143.21 91.14 152.28 91.14 177.22"/><path class="cls-2" d="M126.25,90.35a10.49,10.49,0,1,0-9.54,9.5A10.5,10.5,0,0,0,126.25,90.35Z"/><path class="cls-2" d="M171.42,115.57a10.48,10.48,0,1,0-9.54,9.5A10.5,10.5,0,0,0,171.42,115.57Z"/><polyline class="cls-1" points="160.38 125.11 160.38 142.91 150.5 151.84 150.5 176.37"/><polyline class="cls-1" points="115.81 99.89 115.81 128.79 102.83 143.29 102.83 183.12"/><polyline class="cls-1" points="134.26 145.1 134.26 158.3 128.21 164.93 128.21 183.12"/><path class="cls-2" d="M144.7,136.78a10.48,10.48,0,1,0-9.53,9.51A10.49,10.49,0,0,0,144.7,136.78Z"/></g></g></svg>