<svg xmlns="http://www.w3.org/2000/svg" viewBox="0 0 232.2 230.09"><defs><style>.cls-1{fill:#fff;}.cls-2{fill:none;}.cls-2,.cls-3{stroke:#fff;stroke-miterlimit:10;stroke-width:3px;}.cls-3{fill:#3b7abe;}</style></defs><title>Asset 4</title><g id="Layer_2" data-name="Layer 2"><g id="Layer_1-2" data-name="Layer 1"><path class="cls-1" d="M112.66,185.88a70.84,70.84,0,0,1,0-141.67V.07Q108,.07,103.25,0a2.63,2.63,0,0,0-3,2q-3.33,9.27-7,18.44A4.33,4.33,0,0,1,91,22.68q-7.45,2.64-15,4.9a4.28,4.28,0,0,1-3.09-.44C67.14,23.51,61.44,19.77,55.77,16a1.89,1.89,0,0,0-2.59,0q-7.93,5.9-16,11.61a2.33,2.33,0,0,0-1,3.05C38,37.1,39.75,43.52,41.35,50a4.55,4.55,0,0,1-.62,3.27c-2.86,4.16-5.94,8.18-8.85,12.31a3.65,3.65,0,0,1-3.14,1.82c-6.73.28-13.46.71-20.2,1A2.09,2.09,0,0,0,6.3,70.14Q3.36,79.54.19,88.9A2.1,2.1,0,0,0,1,91.62C6.31,95.8,11.58,100,16.75,104.34a4.56,4.56,0,0,1,1.47,3q.23,7.69,0,15.41a4.58,4.58,0,0,1-1.47,3C11.58,130.08,6.31,134.29,1,138.47a2.11,2.11,0,0,0-.83,2.72c2.07,6.16,4.1,12.34,6,18.55a2.36,2.36,0,0,0,2.55,2c6.74.29,13.48.63,20.2,1.09a4,4,0,0,1,2.57,1.41c3.2,4.2,6.32,8.47,9.32,12.82a4.25,4.25,0,0,1,.5,3.09c-1.64,6.52-3.48,13-5.14,19.52a2.89,2.89,0,0,0,.65,2.45c5.76,4.32,11.61,8.51,17.57,12.83,6.25-4.07,12.31-8.09,18.47-12a4.14,4.14,0,0,1,3.08-.43q7.47,2.22,14.82,4.82a4.59,4.59,0,0,1,2.44,2.29q3.68,9.15,7,18.44a2.62,2.62,0,0,0,3,2q4.71-.06,9.42-.06V185.88Z"/><path class="cls-2" d="M54.06,114.81a58.67,58.67,0,0,0,58.62,58.71V56.3A58.67,58.67,0,0,0,54.06,114.81Z"/><path class="cls-3" d="M173.33,75.51A10.17,10.17,0,1,0,164,66.05,10.38,10.38,0,0,0,173.33,75.51Z"/><polyline class="cls-2" points="164 65.17 145.91 64.8 136.63 74.21 111.7 73.69"/><path class="cls-3" d="M219.06,112.05a10.48,10.48,0,1,0-9.3-9.73A10.5,10.5,0,0,0,219.06,112.05Z"/><path class="cls-3" d="M165.3,177a10.48,10.48,0,1,0-9.3-9.73A10.49,10.49,0,0,0,165.3,177Z"/><polyline class="cls-2" points="155.89 165.6 140.94 165.29 133.65 155.25 113.06 154.82"/><polyline class="cls-2" points="209.52 101.85 175.91 101.15 159.33 87.83 113.03 86.87"/><polyline class="cls-2" points="142.91 114.53 132.05 114.3 126.73 108.14 111.76 107.83"/><path class="cls-3" d="M151,126a10.48,10.48,0,1,0-9.3-9.73A10.51,10.51,0,0,0,151,126Z"/><path class="cls-3" d="M186.65,154.87a10.48,10.48,0,1,0-9.3-9.73A10.49,10.49,0,0,0,186.65,154.87Z"/><polyline class="cls-2" points="177.21 143.94 154.86 143.48 143.85 133.37 113.06 132.73"/></g></g></svg>