<svg xmlns="http://www.w3.org/2000/svg" viewBox="0 0 278.35 230.09"><defs><style>.cls-1{fill:#fff;}.cls-2{fill:none;}.cls-2,.cls-3,.cls-4{stroke:#fff;stroke-miterlimit:10;}.cls-2,.cls-4{stroke-width:10px;}.cls-3{fill:#3b7abe;stroke-width:4px;}.cls-4{fill:#1d1d1b;}</style></defs><title>Asset 6</title><g id="Layer_2" data-name="Layer 2"><g id="Layer_1-2" data-name="Layer 1"><path class="cls-1" d="M27.4,114.88a85.4,85.4,0,0,0,85.26,85.5h0V230q-4.71,0-9.42.07a2.63,2.63,0,0,1-3-2q-3.33-9.27-7-18.44a4.59,4.59,0,0,0-2.44-2.29q-7.34-2.61-14.82-4.82a4.24,4.24,0,0,0-3.08.43c-6.16,3.88-12.22,7.89-18.47,12-6-4.32-11.81-8.51-17.57-12.83a2.89,2.89,0,0,1-.65-2.45c1.66-6.52,3.5-13,5.14-19.52a4.28,4.28,0,0,0-.5-3.08c-3-4.36-6.12-8.63-9.32-12.83A4,4,0,0,0,29,162.79c-6.72-.45-13.46-.8-20.2-1.09a2.36,2.36,0,0,1-2.55-2c-1.93-6.21-4-12.38-6-18.55A2.11,2.11,0,0,1,1,138.47c5.29-4.18,10.56-8.39,15.73-12.72a4.56,4.56,0,0,0,1.47-3q.23-7.69,0-15.41a4.56,4.56,0,0,0-1.47-3C11.58,100,6.31,95.8,1,91.62A2.1,2.1,0,0,1,.19,88.9Q3.34,79.56,6.3,70.14a2.08,2.08,0,0,1,2.24-1.73c6.73-.31,13.46-.75,20.2-1a3.67,3.67,0,0,0,3.14-1.82c2.91-4.14,6-8.15,8.84-12.32A4.5,4.5,0,0,0,41.35,50C39.75,43.53,38,37.1,36.19,30.7a2.33,2.33,0,0,1,1-3.05Q45.25,22,53.18,16a1.89,1.89,0,0,1,2.59,0c5.67,3.77,11.36,7.51,17.13,11.14a4.23,4.23,0,0,0,3.09.44q7.58-2.26,15-4.9a4.3,4.3,0,0,0,2.24-2.22q3.65-9.15,7-18.44a2.62,2.62,0,0,1,3-2q4.73.08,9.43.07V29.71A85.4,85.4,0,0,0,27.4,114.88Z"/><path class="cls-2" d="M39.41,115.49c-.08,40.21,30.57,73,68.27,73V42.78C70.13,42.75,39.49,75.35,39.41,115.49Z"/><path class="cls-3" d="M230.78,72.51c11.16,1.19,20.76-7.16,21-17.83.26-10.15-8.06-18.62-18.52-18.86-11-.25-20,8.71-19.32,19.6A18.64,18.64,0,0,0,230.78,72.51Z"/><polyline class="cls-2" points="214.9 54.96 179.21 54.22 160.89 74.21 111.71 73.19"/><polyline class="cls-2" points="171 176.98 150.76 176.56 140.96 159.27 113.06 158.69"/><polyline class="cls-2" points="238.18 145.1 194.51 144.19 173.14 118.08 112.97 116.83"/><polyline class="cls-2" points="194.18 104.14 165.55 103.6 150.94 116.3 111.49 115.56"/><path class="cls-3" d="M188,195.38c11.16,1.19,20.75-7.15,21-17.83.25-10.15-8.06-18.61-18.52-18.85-11-.25-20,8.7-19.32,19.59A18.63,18.63,0,0,0,188,195.38Z"/><path class="cls-3" d="M255.33,163.29c11.16,1.19,20.75-7.15,21-17.83.25-10.15-8.07-18.61-18.52-18.85-11-.25-20,8.7-19.32,19.59A18.63,18.63,0,0,0,255.33,163.29Z"/><path class="cls-3" d="M207,121.89c11.16,1.18,20.75-7.16,21-17.84.26-10.14-8.06-18.61-18.52-18.85-11-.25-20,8.7-19.32,19.6A18.64,18.64,0,0,0,207,121.89Z"/><rect class="cls-4" x="107.68" y="29.86" width="0.01" height="170.37"/></g></g></svg>