<svg xmlns="http://www.w3.org/2000/svg" viewBox="0 0 278.35 230.09"><defs><style>.cls-1{fill:#fff;}.cls-2{fill:none;stroke-width:10px;}.cls-2,.cls-3{stroke:#fff;stroke-miterlimit:10;}.cls-3{fill:#3b7abe;stroke-width:4px;}</style></defs><title>Asset 5</title><g id="Layer_2" data-name="Layer 2"><g id="Layer_1-2" data-name="Layer 1"><path class="cls-1" d="M112.66,185.88a70.84,70.84,0,0,1,0-141.67V.07Q108,.07,103.25,0a2.63,2.63,0,0,0-3,2q-3.33,9.27-7,18.44A4.33,4.33,0,0,1,91,22.68q-7.45,2.64-15,4.9a4.28,4.28,0,0,1-3.09-.44C67.14,23.51,61.44,19.77,55.77,16a1.89,1.89,0,0,0-2.59,0q-7.93,5.9-16,11.61a2.33,2.33,0,0,0-1,3.05C38,37.1,39.75,43.52,41.35,50a4.55,4.55,0,0,1-.62,3.27c-2.86,4.16-5.94,8.18-8.85,12.31a3.65,3.65,0,0,1-3.14,1.82c-6.73.28-13.46.71-20.2,1A2.09,2.09,0,0,0,6.3,70.14Q3.36,79.54.19,88.9A2.1,2.1,0,0,0,1,91.62C6.31,95.8,11.58,100,16.75,104.34a4.56,4.56,0,0,1,1.47,3q.23,7.69,0,15.41a4.58,4.58,0,0,1-1.47,3C11.58,130.08,6.31,134.29,1,138.47a2.11,2.11,0,0,0-.83,2.72c2.07,6.16,4.1,12.34,6,18.55a2.36,2.36,0,0,0,2.55,2c6.74.29,13.48.63,20.2,1.09a4,4,0,0,1,2.57,1.41c3.2,4.2,6.32,8.47,9.32,12.82a4.25,4.25,0,0,1,.5,3.09c-1.64,6.52-3.48,13-5.14,19.52a2.89,2.89,0,0,0,.65,2.45c5.76,4.32,11.61,8.51,17.57,12.83,6.25-4.07,12.31-8.09,18.47-12a4.14,4.14,0,0,1,3.08-.43q7.47,2.22,14.82,4.82a4.59,4.59,0,0,1,2.44,2.29q3.68,9.15,7,18.44a2.62,2.62,0,0,0,3,2q4.71-.06,9.42-.06V185.88Z"/><path class="cls-2" d="M56.72,115c-.06,30,23.15,54.45,51.71,54.45V60.68C80,60.66,56.78,85,56.72,115Z"/><path class="cls-3" d="M230.78,71.94c11.16,1.18,20.75-7.16,21-17.84.26-10.15-8.06-18.61-18.52-18.85-11-.25-20,8.7-19.32,19.59A18.65,18.65,0,0,0,230.78,71.94Z"/><polyline class="cls-2" points="214.9 54.38 179.21 53.65 160.89 73.64 111.7 72.62"/><polyline class="cls-2" points="171 176.41 150.75 175.99 140.96 158.69 113.06 158.12"/><polyline class="cls-2" points="238.17 144.52 194.5 143.62 173.14 117.5 112.97 116.26"/><polyline class="cls-2" points="194.18 103.56 165.55 103.02 150.94 115.73 111.48 114.98"/><path class="cls-3" d="M188,194.81c11.15,1.19,20.75-7.16,21-17.83.25-10.15-8.07-18.62-18.52-18.86-11-.25-20,8.71-19.32,19.6A18.63,18.63,0,0,0,188,194.81Z"/><path class="cls-3" d="M255.33,162.72c11.15,1.18,20.75-7.16,21-17.83.25-10.15-8.07-18.62-18.53-18.86-11-.25-20,8.71-19.32,19.6A18.65,18.65,0,0,0,255.33,162.72Z"/><path class="cls-3" d="M207,121.31c11.16,1.19,20.75-7.16,21-17.83.25-10.15-8.06-18.62-18.52-18.85-11-.25-20,8.7-19.32,19.59A18.63,18.63,0,0,0,207,121.31Z"/></g></g></svg>